<svg width="84" height="95" viewBox="0 0 84 95" fill="none" xmlns="http://www.w3.org/2000/svg">
<path d="M82.1575 66.1816V6.28288C82.1575 3.91189 80.25 2.00439 77.879 2.00439H19.4064C9.95811 2.00439 2.2925 9.67001 2.2925 19.1183V76.1648C2.2925 85.6131 9.95811 93.2787 19.4064 93.2787H77.879C80.25 93.2787 82.1575 91.3712 82.1575 89.0002V86.1479C82.1575 84.8109 81.5336 83.5986 80.5709 82.8142C79.8222 80.0689 79.8222 72.2428 80.5709 69.4975C81.5336 68.7309 82.1575 67.5187 82.1575 66.1816ZM25.1111 25.8926C25.1111 25.3043 25.5924 24.823 26.1807 24.823H63.974C64.5622 24.823 65.0436 25.3043 65.0436 25.8926V29.458C65.0436 30.0463 64.5622 30.5276 63.974 30.5276H26.1807C25.5924 30.5276 25.1111 30.0463 25.1111 29.458V25.8926ZM25.1111 37.3019C25.1111 36.7136 25.5924 36.2323 26.1807 36.2323H63.974C64.5622 36.2323 65.0436 36.7136 65.0436 37.3019V40.8673C65.0436 41.4556 64.5622 41.9369 63.974 41.9369H26.1807C25.5924 41.9369 25.1111 41.4556 25.1111 40.8673V37.3019ZM70.2847 81.8694H19.4064C16.251 81.8694 13.7018 79.3202 13.7018 76.1648C13.7018 73.0272 16.2689 70.4601 19.4064 70.4601H70.2847C69.946 73.5085 69.946 78.821 70.2847 81.8694Z" fill="black" stroke="black" stroke-width="3"/>
</svg>
